<svg width="24" height="24" viewBox="0 0 24 24" fill="none" xmlns="http://www.w3.org/2000/svg">
<path d="M13 20H15C15.2652 20 15.5196 19.8946 15.7071 19.7071C15.8946 19.5196 16 19.2652 16 19V16.93L17.065 16.367C17.9512 15.9001 18.6929 15.1999 19.2102 14.3422C19.7274 13.4844 20.0005 12.5016 20 11.5V9.5C20 8.04131 19.4205 6.64236 18.3891 5.61091C17.3576 4.57946 15.9587 4 14.5 4H9.5C8.04131 4 6.64236 4.57946 5.61091 5.61091C4.57946 6.64236 4 8.04131 4 9.5V11.5C3.99946 12.5016 4.27257 13.4844 4.78983 14.3422C5.30709 15.1999 6.04885 15.9001 6.935 16.367L8 16.93V19C8 19.2652 8.10536 19.5196 8.29289 19.7071C8.48043 19.8946 8.73478 20 9 20H11V18C11 17.7348 11.1054 17.4804 11.2929 17.2929C11.4804 17.1054 11.7348 17 12 17C12.2652 17 12.5196 17.1054 12.7071 17.2929C12.8946 17.4804 13 17.7348 13 18V20ZM18 19C18 19.7956 17.6839 20.5587 17.1213 21.1213C16.5587 21.6839 15.7956 22 15 22H9C8.20435 22 7.44129 21.6839 6.87868 21.1213C6.31607 20.5587 6 19.7956 6 19V18.135C4.79243 17.498 3.78169 16.5433 3.07679 15.3741C2.37189 14.2048 1.99957 12.8653 2 11.5V9.5C2 7.51088 2.79018 5.60322 4.1967 4.1967C5.60322 2.79018 7.51088 2 9.5 2H14.5C16.4891 2 18.3968 2.79018 19.8033 4.1967C21.2098 5.60322 22 7.51088 22 9.5V11.5C22.0004 12.8653 21.6281 14.2048 20.9232 15.3741C20.2183 16.5433 19.2076 17.498 18 18.135V19ZM8 13C7.46957 13 6.96086 12.7893 6.58579 12.4142C6.21071 12.0391 6 11.5304 6 11C6 10.4696 6.21071 9.96086 6.58579 9.58579C6.96086 9.21071 7.46957 9 8 9C8.53043 9 9.03914 9.21071 9.41421 9.58579C9.78929 9.96086 10 10.4696 10 11C10 11.5304 9.78929 12.0391 9.41421 12.4142C9.03914 12.7893 8.53043 13 8 13ZM16 13C15.4696 13 14.9609 12.7893 14.5858 12.4142C14.2107 12.0391 14 11.5304 14 11C14 10.4696 14.2107 9.96086 14.5858 9.58579C14.9609 9.21071 15.4696 9 16 9C16.5304 9 17.0391 9.21071 17.4142 9.58579C17.7893 9.96086 18 10.4696 18 11C18 11.5304 17.7893 12.0391 17.4142 12.4142C17.0391 12.7893 16.5304 13 16 13Z" fill="#0F172A"/>
</svg>
